<svg xmlns="http://www.w3.org/2000/svg" xmlns:xlink="http://www.w3.org/1999/xlink" version="1.1" id="Capa_1" x="0px" y="0px" width="512px" height="512px" viewBox="0 0 98.374 98.374" style="enable-background:new 0 0 98.374 98.374;" xml:space="preserve" class=""><g><g>
	<g>
		<path d="M97.789,23.118l-7.24-7.24c-0.781-0.781-2.047-0.781-2.828,0L50.464,53.133l-13.291-13.29    c-0.781-0.781-2.047-0.781-2.828,0l-7.24,7.24c-0.375,0.375-0.586,0.884-0.586,1.414c0,0.53,0.211,1.039,0.586,1.414L49.05,71.854    c0.391,0.391,0.902,0.586,1.414,0.586c0.513,0,1.022-0.195,1.414-0.586l45.91-45.908c0.375-0.375,0.586-0.884,0.586-1.414    C98.374,24.002,98.164,23.493,97.789,23.118z" data-original="#000000" class="active-path" data-old_color="#000000" fill="#FEBFBF"/>
		<path d="M73.583,80.979H10V17.395h65.098l8.485-8c0-1.104-0.896-2-2-2H2c-1.104,0-2,0.896-2,2v79.584c0,1.104,0.896,2,2,2h79.584    c1.105,0,2-0.896,2-2v-37.88l-10,10.5L73.583,80.979L73.583,80.979z" data-original="#000000" class="active-path" data-old_color="#000000" fill="#FEBFBF"/>
	</g>
</g></g> </svg>