<svg xmlns="http://www.w3.org/2000/svg" width="84" height="84" viewBox="0 0 84 84" fill="none">
<path fill-rule="evenodd" clip-rule="evenodd" d="M59.5 59.5V66.5H63C72.665 66.5 80.5 58.665 80.5 49C80.5 40.1974 74.0007 32.9127 65.539 31.6829C62.5625 21.3697 53.0552 14 42 14C33.787 14 26.2815 18.0778 21.7696 24.676C11.4346 26.0172 3.5 34.8557 3.5 45.5C3.5 57.098 12.902 66.5 24.5 66.5V59.5C16.768 59.5 10.5 53.232 10.5 45.5C10.5 37.9766 16.4477 31.8051 23.9388 31.511L25.8673 31.4353L26.8325 29.764C29.94 24.3825 35.6734 21 42 21C50.5789 21 57.8562 27.217 59.2583 35.5816L59.7582 38.5637L62.7812 38.5023C62.8904 38.5004 62.8904 38.5004 63 38.5C68.799 38.5 73.5 43.201 73.5 49C73.5 54.799 68.799 59.5 63 59.5H59.5ZM45.5 73.5001V50.4499L53.5251 58.475L58.4749 53.5252L42 37.0504L25.5251 53.5252L30.4749 58.475L38.5 50.4499V73.5001H45.5Z" fill="white" fill-opacity="0.4"/>
</svg>