<?xml version="1.0" encoding="UTF-8" standalone="no"?>
<svg width="400px" height="400px" viewBox="0 0 400 400" version="1.1" xmlns="http://www.w3.org/2000/svg" xmlns:xlink="http://www.w3.org/1999/xlink">
    <!-- Generator: Sketch 3.6.1 (26313) - http://www.bohemiancoding.com/sketch -->
    <title>Web Forms - SVG Prep</title>
    <desc>Created with Sketch.</desc>
    <defs>
        <radialGradient cx="50%" cy="30.5603272%" fx="50%" fy="30.5603272%" r="52.7689162%" id="radialGradient-1">
            <stop stop-color="#D5DCEE" offset="0%"></stop>
            <stop stop-color="#FFFFFF" offset="100%"></stop>
        </radialGradient>
        <linearGradient x1="50%" y1="0%" x2="50%" y2="83.227569%" id="linearGradient-2">
            <stop stop-color="#B9CCD7" offset="0%"></stop>
            <stop stop-color="#FFFFFF" offset="100%"></stop>
        </linearGradient>
        <linearGradient x1="50%" y1="11.2926136%" x2="50%" y2="76.3268337%" id="linearGradient-3">
            <stop stop-color="#FDE1E1" offset="0%"></stop>
            <stop stop-color="#FFFFFF" offset="100%"></stop>
        </linearGradient>
        <linearGradient x1="40.3745821%" y1="0%" x2="39.5733327%" y2="81.543418%" id="linearGradient-4">
            <stop stop-color="#F3AEAE" offset="0%"></stop>
            <stop stop-color="#D3E6F1" offset="51.3612085%"></stop>
            <stop stop-color="#FFFFFF" stop-opacity="0" offset="100%"></stop>
        </linearGradient>
        <linearGradient x1="58.8125941%" y1="14.8405217%" x2="31.0182135%" y2="89.6129261%" id="linearGradient-5">
            <stop stop-color="#FADDDD" offset="0%"></stop>
            <stop stop-color="#EBF6FC" offset="52.3303758%"></stop>
            <stop stop-color="#FFFFFF" stop-opacity="0.930366848" offset="100%"></stop>
        </linearGradient>
        <linearGradient x1="50%" y1="0%" x2="50%" y2="111.201673%" id="linearGradient-6">
            <stop stop-color="#F3AEAE" offset="0%"></stop>
            <stop stop-color="#EAF2F7" offset="51.3612085%"></stop>
            <stop stop-color="#FFFFFF" stop-opacity="0" offset="100%"></stop>
        </linearGradient>
        <linearGradient x1="50%" y1="8.6486312%" x2="47.5091773%" y2="89.2917097%" id="linearGradient-7">
            <stop stop-color="#FADDDD" offset="0%"></stop>
            <stop stop-color="#EBF6FC" offset="52.3303758%"></stop>
            <stop stop-color="#FFFFFF" stop-opacity="0.930366848" offset="100%"></stop>
        </linearGradient>
        <linearGradient x1="50%" y1="0%" x2="50%" y2="111.201673%" id="linearGradient-8">
            <stop stop-color="#F3AEAE" offset="0%"></stop>
            <stop stop-color="#EAF2F7" offset="51.3612085%"></stop>
            <stop stop-color="#FFFFFF" stop-opacity="0" offset="100%"></stop>
        </linearGradient>
        <linearGradient x1="50%" y1="10.9957768%" x2="50%" y2="100%" id="linearGradient-9">
            <stop stop-color="#FBFBFC" offset="0%"></stop>
            <stop stop-color="#EDF4F7" offset="100%"></stop>
        </linearGradient>
        <linearGradient x1="94.3993171%" y1="50%" x2="4.26971233%" y2="50%" id="linearGradient-10">
            <stop stop-color="#F7F8F9" offset="0%"></stop>
            <stop stop-color="#EBF0F5" offset="100%"></stop>
        </linearGradient>
        <linearGradient x1="50%" y1="0%" x2="50%" y2="100%" id="linearGradient-11">
            <stop stop-color="#ACB9CB" offset="0%"></stop>
            <stop stop-color="#B3D8E3" offset="100%"></stop>
        </linearGradient>
        <linearGradient x1="50%" y1="46.2966513%" x2="50%" y2="100%" id="linearGradient-12">
            <stop stop-color="#FEF5DB" offset="0%"></stop>
            <stop stop-color="#FDA38B" offset="100%"></stop>
        </linearGradient>
        <linearGradient x1="50%" y1="31.1333368%" x2="55.5476173%" y2="100%" id="linearGradient-13">
            <stop stop-color="#FFFAE1" stop-opacity="0" offset="0%"></stop>
            <stop stop-color="#FFA34E" offset="100%"></stop>
        </linearGradient>
        <linearGradient x1="27.1998122%" y1="90.4461623%" x2="77.3791402%" y2="11.8209219%" id="linearGradient-14">
            <stop stop-color="#FEF2E5" offset="0%"></stop>
            <stop stop-color="#FF9285" offset="100%"></stop>
        </linearGradient>
        <linearGradient x1="100%" y1="19.1894531%" x2="0%" y2="84.1796875%" id="linearGradient-15">
            <stop stop-color="#FEF2E5" offset="0%"></stop>
            <stop stop-color="#FBA196" offset="100%"></stop>
        </linearGradient>
    </defs>
    <g id="Page-1" stroke="none" stroke-width="1" fill="none" fill-rule="evenodd">
        <g id="Web-Forms---SVG-Prep">
            <path d="M200,325.753906 C300.027344,325.753906 320,306.282627 320,296.219999 C320,286.157372 266.27417,278 200,278 C133.72583,278 80,286.157372 80,296.219999 C80,306.282627 99.9726562,325.753906 200,325.753906 Z" id="Oval-55" fill="url(#radialGradient-1)"></path>
            <path d="M320,296.219999 C320,286.157372 266.27417,278 200,278 C133.72583,278 80,286.157372 80,296.219999" id="Oval-55-Copy" stroke="url(#linearGradient-2)" stroke-width="2" stroke-linecap="round"></path>
            <path d="M160.478616,135.591415 C162.975708,131.951077 167.031086,131.96098 169.521384,135.591415 L248,250 L82,250 L160.478616,135.591415 Z" id="Triangle-11" fill="url(#linearGradient-3)"></path>
            <path d="M110.455105,208.517257 C130.587171,179.1681 160.478616,135.591415 160.478616,135.591415 C162.975708,131.951077 167.031086,131.96098 169.521384,135.591415 L248,250" id="Triangle-11-Copy-4" stroke="url(#linearGradient-4)" stroke-width="2" stroke-linecap="round"></path>
            <path d="M164.989839,139.037882 C164.20415,137.915049 162.929784,137.918971 162.143878,139.046045 L150.834406,155.462375 C148.944682,158.172444 150.834406,159.179688 152.846586,157.827071 C152.846586,157.827071 156.477555,154.800403 160.190516,154.800403 C163.903476,154.800403 169.674172,162.198242 173.615516,162.198242 C176.157627,162.198242 177.457253,161.420074 177.457253,161.420074 C178.824964,160.889147 179.252774,159.482673 178.418576,158.286916 L164.989839,139.037882 Z" id="Triangle-11-Copy" fill="#FFFFFF" transform="translate(164.449636, 150.198242) scale(-1, 1) translate(-164.449636, -150.198242) "></path>
            <path d="M110.478616,105.591415 C112.975708,101.951077 117.031086,101.96098 119.521384,105.591415 L198,220 L32,220 L110.478616,105.591415 Z" id="Triangle-11" fill="url(#linearGradient-5)"></path>
            <path d="M32,220 C32,220 46.0966011,199.449533 53.1449016,189.1743 C72.2561399,161.313338 110.478616,105.591415 110.478616,105.591415 C112.975708,101.951077 117.031086,101.96098 119.521384,105.591415 L198,220" id="Triangle-11-Copy-3" stroke="url(#linearGradient-6)" stroke-width="2" stroke-linecap="round"></path>
            <path d="M90.4661023,142.374152 C99.2710016,129.607048 112.867453,110.066353 112.867453,110.066353 C114.045226,108.372853 115.955542,108.378767 117.133642,110.078666 L138.103899,140.336989 C140.936658,144.424421 139.607026,145.965329 135.087577,143.903517 C135.087577,143.903517 126.804687,139.331053 120.548828,139.331053 C114.292969,139.331053 107.755859,150.92871 97.713867,150.92871 C87.6718745,150.92871 90.4661023,142.374152 90.4661023,142.374152 Z" id="Triangle-11-Copy" fill="#FFFFFF"></path>
            <path d="M270.478616,124.591415 C272.975708,120.951077 277.031086,120.96098 279.521384,124.591415 L358,239 L192,239 L270.478616,124.591415 Z" id="Triangle-11" fill="url(#linearGradient-7)"></path>
            <path d="M192,239 C192,239 206.096601,218.449533 213.144902,208.1743 C232.25614,180.313338 270.478616,124.591415 270.478616,124.591415 C272.975708,120.951077 277.031086,120.96098 279.521384,124.591415 L358,239" id="Triangle-11-Copy-2" stroke="url(#linearGradient-8)" stroke-width="2" stroke-linecap="round"></path>
            <path d="M277.396978,129.266378 C276.219205,127.572877 274.308889,127.578791 273.13079,129.27869 L256.177526,154.038452 C253.344767,158.125884 254.674399,159.666792 259.193848,157.60498 C259.193848,157.60498 264.636788,153.040039 270.202637,153.040039 C275.768485,153.040039 284.418944,164.197754 290.327148,164.197754 C294.137854,164.197754 296.086035,163.02409 296.086035,163.02409 C298.136279,162.223324 298.777579,160.102024 297.516688,158.283534 L277.396978,129.266378 Z" id="Triangle-11-Copy" fill="#FFFFFF"></path>
            <g id="Web-Form" transform="translate(123.000000, 160.000000)">
                <rect id="Rectangle-245" fill="url(#linearGradient-9)" x="1" y="0" width="151" height="135.314735" rx="10.3291139"></rect>
                <path d="M1.64709166,7.32423306 C2.51509459,3.27917083 6.57574636,0 10.7201012,0 L142.405875,0 C146.548757,0 150.585949,3.29181366 151.421902,7.34620099 L153,15 L0,15 L1.64709166,7.32423306 Z" id="Rectangle-245-Copy" fill="url(#linearGradient-10)" style="mix-blend-mode: multiply;"></path>
                <rect id="Rectangle-246" fill="#E5EBF0" x="45.6136364" y="24.1012658" width="61.7727273" height="6.88607595" rx="1.72151899"></rect>
                <rect id="Rectangle-246" fill="#E6EBF1" x="14.7272727" y="39.5949367" width="25.7386364" height="6.88607595" rx="1.72151899"></rect>
                <rect id="Rectangle-246" fill="#FFFFFF" x="43.8977273" y="39.5949367" width="94.375" height="6.88607595" rx="1.72151899"></rect>
                <rect id="Rectangle-246" fill="#FFFFFF" x="43.8977273" y="115.341772" width="94.375" height="6.88607595" rx="1.72151899"></rect>
                <rect id="Rectangle-246" fill="#FFFFFF" x="43.8977273" y="101.56962" width="51.4772727" height="6.88607595" rx="1.72151899"></rect>
                <path d="M1.30810547,15.0336914 L123.308105,15.0336914" id="Line" stroke="#ADBDCE" stroke-width="2" stroke-linecap="round"></path>
                <path d="M137.308105,15.0336914 L151.308105,15.0336914" id="Line" stroke="#ADBDCE" stroke-width="2" stroke-linecap="round"></path>
                <rect id="Rectangle-246" fill="#E6EBF1" x="14.7272727" y="101.56962" width="25.7386364" height="6.88607595" rx="1.72151899"></rect>
                <rect id="Rectangle-246" fill="#E6EBF1" x="14.7272727" y="53.3670886" width="25.7386364" height="6.88607595" rx="1.72151899"></rect>
                <rect id="Rectangle-246" fill="#E6EBF1" x="14.7272727" y="115.341772" width="25.7386364" height="6.88607595" rx="1.72151899"></rect>
                <rect id="Rectangle-245-Copy-2" stroke="url(#linearGradient-11)" stroke-width="2" x="1" y="0" width="151" height="135.314735" rx="10.3291139"></rect>
                <g id="Group" transform="translate(7.000000, 5.140625)">
                    <ellipse id="Oval-91" fill="#E84646" cx="3.00852273" cy="2.24028382" rx="2.14488636" ry="2.15189873"></ellipse>
                    <ellipse id="Oval-91" fill="#FAC443" cx="9.87215909" cy="2.3164557" rx="2.14488636" ry="2.15189873"></ellipse>
                    <ellipse id="Oval-91" fill="#43C35E" cx="16.7357955" cy="2.3164557" rx="2.14488636" ry="2.15189873"></ellipse>
                </g>
                <g id="Face" transform="translate(48.000000, 57.000000)">
                    <ellipse id="Oval-33" fill="#FACFCF" cx="6.16429288" cy="26.7579026" rx="6.16429288" ry="4.15875006"></ellipse>
                    <ellipse id="Oval-33" fill="#FACFCF" cx="52.4680903" cy="26.7579026" rx="6.16429288" ry="4.15875006"></ellipse>
                    <ellipse id="Oval-28" fill="#26292C" cx="13.4551105" cy="13.6612501" rx="4.70879734" ry="6.16125011"></ellipse>
                    <ellipse id="Oval-30" fill="#FFFFFF" cx="14.4626859" cy="10.5432203" rx="1.6812861" ry="1.69067797"></ellipse>
                    <ellipse id="Oval-28" fill="#26292C" cx="45.1400393" cy="13.6612501" rx="4.70760108" ry="6.16125011"></ellipse>
                    <ellipse id="Oval-30" fill="#FFFFFF" cx="46.148811" cy="10.5432203" rx="1.6812861" ry="1.69067797"></ellipse>
                    <path d="M29.2796835,35.3204629 C33.4888972,35.3204629 36.9011397,32.7156459 36.9011391,28.557751 C36.9011386,24.3998561 21.6582278,24.5624537 21.6582278,28.557751 C21.6582278,32.5530483 25.0704698,35.3204629 29.2796835,35.3204629 Z" id="Oval-32" fill="#26292C" transform="translate(29.279683, 30.410231) scale(1, -1) translate(-29.279683, -30.410231) "></path>
                    <path d="M7.09493671,1.875 L10.8291139,0.375" id="Line" stroke="#26292C" stroke-width="1.48366205" stroke-linecap="round"></path>
                    <path d="M46.6772152,1.875 L50.4113924,0.375" id="Line" stroke="#26292C" stroke-width="1.48366205" stroke-linecap="round" transform="translate(48.544304, 1.125000) scale(-1, 1) translate(-48.544304, -1.125000) "></path>
                </g>
            </g>
            <g id="The-comet" transform="translate(280.500000, 73.000000) rotate(25.000000) translate(-280.500000, -73.000000) translate(221.000000, 1.000000)">
                <path d="M54.4767727,150.050609 C56.0457481,150.655324 57.7515793,150.986998 59.5353077,150.986998 C67.268831,150.986998 73.3130773,143.335923 73.3130769,135.645155 C73.3130767,131.249811 70.6801319,125.027851 70.1710747,120.520803 C69.6620175,116.013754 64.5767027,36.0162724 63.9870123,36.0162732 C63.5876786,36.0162732 63.9870132,91.2379055 62.9713159,91.2379132 C61.9556187,91.2379209 60.0945705,-7.41101946 59.5353073,-7.41101946 C58.9579598,-7.41101946 57.2038186,68.3603936 56.1034511,68.3603936 C55.0030836,68.3603936 55.495272,43.6676714 54.4767725,44.7978067 C52.2189325,54.9001924 48.6080604,117.613595 47.9442341,120.520803 C47.2804077,123.42801 45.3075114,131.954901 45.3075114,135.645155 C45.3075114,141.562056 49.2433069,148.033525 54.4767727,150.050609 Z" id="Oval-96" stroke="url(#linearGradient-13)" stroke-width="2.02816901" fill="url(#linearGradient-12)" transform="translate(59.310294, 71.787989) rotate(37.000000) translate(-59.310294, -71.787989) "></path>
                <ellipse id="Oval-95" fill="url(#linearGradient-14)" cx="19.8333333" cy="124.225352" rx="10.6794872" ry="10.6478873"></ellipse>
                <ellipse id="Oval-97" fill="url(#linearGradient-15)" cx="13.4954616" cy="126.263365" rx="2.03418803" ry="2.02816901"></ellipse>
                <ellipse id="Oval-97" fill="url(#linearGradient-15)" cx="19.0883782" cy="121.425225" rx="2.03418803" ry="2.02816901"></ellipse>
                <ellipse id="Oval-97" fill="url(#linearGradient-15)" cx="20.3489691" cy="130.15853" rx="3.05128205" ry="3.04225352"></ellipse>
            </g>
        </g>
    </g>
</svg>