<svg style="margin-bottom:10px;" width="34.71017007983339" height="46.51162790697675" viewBox="0 0 67 90" fill="none" xmlns="http://www.w3.org/2000/svg">
                  <path d="M32.3294 38.5493C31.6196 37.7677 30.6077 37.3196 29.5533 37.3196C28.499 37.3196 27.4869 37.7679 26.7762 38.5495L16.5996 49.7395C15.9236 50.4824 15.755 51.5157 16.1595 52.436C16.5638 53.3569 17.4372 53.9289 18.4391 53.9289H22.7603V73.7962C22.7603 75.6571 24.268 77.1712 26.1213 77.1712H32.9851C34.8383 77.1712 36.3458 75.6571 36.3458 73.7962V53.9287H40.667C41.669 53.9287 42.5424 53.3569 42.9467 52.4362C43.351 51.5154 43.1822 50.4815 42.5066 49.7384L32.3294 38.5493ZM35.9775 51.9619C35.1009 51.9619 34.3879 52.6785 34.3879 53.5593V73.7962C34.3879 74.5728 33.7586 75.2043 32.9852 75.2043H26.1214C25.3481 75.2043 24.7188 74.5728 24.7188 73.7962V53.5593C24.7188 52.6785 24.0053 51.9619 23.1283 51.9619H17.2296L28.222 39.8751C28.6884 39.3628 29.2565 39.2863 29.5534 39.2863C29.8506 39.2863 30.4185 39.3628 30.884 39.8756L41.8758 51.9617H35.9775V51.9619Z" fill="url(#paint0_radial)"></path>
                  <path d="M17.855 33.0918H41.2513C41.7911 33.0918 42.2305 32.6507 42.2305 32.1084C42.2305 31.5661 41.7911 31.125 41.2513 31.125H17.855C17.3151 31.125 16.8759 31.5661 16.8759 32.1084C16.8759 32.6507 17.3152 33.0918 17.855 33.0918Z" fill="url(#paint1_radial)"></path>
                  <path d="M58.5618 33.8666L58.5604 33.8632C58.5364 33.8047 58.5066 33.7484 58.4716 33.6958C58.4331 33.6377 58.3936 33.5891 58.3505 33.5457C58.3074 33.5033 58.257 33.462 58.2051 33.4276C58.1465 33.3887 58.0888 33.3574 58.031 33.3334C57.9688 33.3075 57.9103 33.2892 57.8565 33.2791C57.7881 33.2653 57.7212 33.2585 57.6557 33.2585C57.5919 33.2585 57.5293 33.2649 57.467 33.2773C57.4039 33.2892 57.3461 33.3071 57.2857 33.3325C57.2248 33.3579 57.1659 33.3896 57.1086 33.4275C57.0579 33.4614 57.0066 33.5031 56.9644 33.5455C56.9194 33.5907 56.8793 33.6397 56.8457 33.6912C56.809 33.7468 56.7785 33.8042 56.7545 33.863C56.7287 33.9254 56.71 33.9875 56.6972 34.0509C56.6844 34.1153 56.6776 34.1809 56.6776 34.2408C56.6776 34.4958 56.785 34.7556 56.9644 34.936C57.0064 34.9782 57.0577 35.0201 57.1129 35.0569C57.1663 35.0918 57.2261 35.1239 57.284 35.1483C57.347 35.1745 57.4088 35.1939 57.4677 35.2058C57.5905 35.2305 57.7237 35.2303 57.8504 35.2053C57.9063 35.194 57.9674 35.1749 58.029 35.149C58.0895 35.1238 58.1465 35.093 58.2004 35.0569C58.2567 35.0199 58.3065 34.9791 58.355 34.9312C58.5291 34.7563 58.6357 34.4965 58.6357 34.2407C58.6357 34.1759 58.6295 34.1107 58.6175 34.0518C58.6049 33.9875 58.5862 33.9254 58.5618 33.8666Z" fill="url(#paint2_radial)"></path>
                  <path d="M55.1847 0H16.0867C12.0857 0 8.8307 3.2696 8.8307 7.28838V15.6753L2.211 23.1566C2.15438 23.2208 2.09902 23.2857 2.04543 23.3519C2.02745 23.3742 2.0084 23.3993 1.98918 23.4243L1.93381 23.4955C1.90782 23.5287 1.88165 23.562 1.85619 23.596C1.83216 23.6285 1.80599 23.6662 1.78 23.7036L1.7467 23.751C1.72534 23.7808 1.7038 23.8111 1.68315 23.8415C1.64648 23.8955 1.61105 23.9512 1.57562 24.0069L1.52613 24.0852C1.48447 24.1526 1.44638 24.2168 1.40952 24.2815L1.36965 24.3507C1.33618 24.4106 1.29826 24.4821 1.26052 24.5547L1.24752 24.5803C1.19767 24.6779 1.15744 24.7623 1.1181 24.847L1.08783 24.9127C0.677661 25.8281 0.469727 26.7998 0.469727 27.8018V82.132C0.469727 86.4364 3.95654 89.9381 8.24233 89.9381H50.8642C55.0716 89.9381 58.4824 86.6302 58.6289 82.4072L58.6553 81.6454L59.4142 81.6309C63.3381 81.5556 66.5304 78.288 66.5304 74.3466V11.3959C66.5304 5.11217 61.4409 0 55.1847 0ZM15.2138 11.4234V22.7835C15.2138 23.7363 14.4417 24.5114 13.4927 24.5114H3.62933L15.2138 11.4234ZM64.5722 74.3466C64.5722 77.2253 62.3296 79.5609 59.4665 79.664L58.6368 79.6939V41.393C58.6368 40.8507 58.1976 40.4095 57.6576 40.4095C57.1177 40.4095 56.6785 40.8507 56.6785 41.393V82.1315C56.6785 85.3516 54.0702 87.9712 50.8642 87.9712H8.24233C5.03626 87.9712 2.42801 85.3516 2.42801 82.1315V27.8018C2.42801 27.6137 2.44118 27.4179 2.46931 27.1854L2.55512 26.4783H13.4927C15.5214 26.4783 17.1721 24.8208 17.1721 22.7835V10.0854L17.7979 9.94433C18.1641 9.8619 18.5367 9.82006 18.9057 9.82006H50.864C54.0701 9.82006 56.6783 12.4397 56.6783 15.6598V27.0887C56.6783 27.631 57.1175 28.0721 57.6575 28.0721C58.1974 28.0721 58.6366 27.631 58.6366 27.0887V15.66C58.6366 11.3554 55.1498 7.8534 50.864 7.8534H18.9059C17.8267 7.8534 16.742 8.11123 15.7684 8.59919L15.7367 8.61474C15.6806 8.64317 15.6252 8.67357 15.5699 8.70397L15.4168 8.78783C15.387 8.80517 15.3482 8.82877 15.3091 8.85255L15.2777 8.87151C15.2181 8.90691 15.165 8.94017 15.1131 8.97324L14.9842 9.05889C14.9329 9.09358 14.875 9.13345 14.8172 9.17547C14.7777 9.20354 14.744 9.22786 14.7111 9.25289C14.6443 9.30296 14.582 9.35213 14.5197 9.40112L14.4285 9.4755C14.3684 9.52557 14.3077 9.57849 14.247 9.63249L14.2119 9.6636C14.1966 9.67719 14.1811 9.69042 14.1661 9.70455C14.0958 9.76892 14.0347 9.82936 13.9735 9.88961L13.8987 9.96274C13.8363 10.0264 13.7722 10.094 13.7091 10.1637L10.7883 13.4617V7.28838C10.7883 4.35404 13.1651 1.96684 16.0867 1.96684H55.1841C60.3608 1.96684 64.5722 6.19679 64.5722 11.3959V74.3466Z" fill="url(#paint3_radial)"></path><defs>
                  <radialGradient id="paint0_radial" cx="0" cy="0" r="1" gradientUnits="userSpaceOnUse" gradientTransform="translate(49.7353 84.3169) rotate(-107.435) scale(100.897 87.5146)"><stop stop-color="#00D8E6"></stop><stop offset="1" stop-color="#009BC4"></stop></radialGradient><radialGradient id="paint1_radial" cx="0" cy="0" r="1" gradientUnits="userSpaceOnUse" gradientTransform="translate(49.7353 84.3169) rotate(-107.435) scale(100.897 87.5146)"><stop stop-color="#00D8E6"></stop><stop offset="1" stop-color="#009BC4"></stop></radialGradient><radialGradient id="paint2_radial" cx="0" cy="0" r="1" gradientUnits="userSpaceOnUse" gradientTransform="translate(49.7353 84.3169) rotate(-107.435) scale(100.897 87.5146)"><stop stop-color="#00D8E6"></stop><stop offset="1" stop-color="#009BC4"></stop></radialGradient><radialGradient id="paint3_radial" cx="0" cy="0" r="1" gradientUnits="userSpaceOnUse" gradientTransform="translate(49.7353 84.3169) rotate(-107.435) scale(100.897 87.5146)"><stop stop-color="#00D8E6"></stop><stop offset="1" stop-color="#009BC4"></stop></radialGradient></defs></svg>