<svg width="19" height="18" viewBox="0 0 19 18" fill="none" xmlns="http://www.w3.org/2000/svg">
<path d="M9.51023 0.0737305C7.01832 0.0737305 6.70559 0.0840843 5.72687 0.126408C4.75007 0.168913 4.08331 0.315864 3.49991 0.531478C2.89643 0.754175 2.38451 1.05207 1.87451 1.53689C1.36412 2.02152 1.05063 2.50796 0.815506 3.08124C0.58803 3.6358 0.433194 4.26956 0.389228 5.19741C0.345454 6.12744 0.333984 6.42479 0.333984 8.79272C0.333984 11.1607 0.345071 11.4569 0.38942 12.3869C0.434341 13.3152 0.588986 13.9487 0.815697 14.5031C1.05025 15.0766 1.36374 15.563 1.87394 16.0477C2.38375 16.5326 2.89566 16.8313 3.49876 17.054C4.08255 17.2696 4.74949 17.4165 5.72611 17.459C6.70483 17.5014 7.01737 17.5117 9.50908 17.5117C12.0012 17.5117 12.313 17.5014 13.2917 17.459C14.2685 17.4165 14.936 17.2696 15.5198 17.054C16.1231 16.8313 16.6342 16.5326 17.144 16.0477C17.6544 15.563 17.9679 15.0766 18.203 14.5033C18.4286 13.9487 18.5834 13.315 18.6293 12.3871C18.6733 11.4571 18.6848 11.1607 18.6848 8.79272C18.6848 6.42479 18.6733 6.12762 18.6293 5.19759C18.5834 4.26938 18.4286 3.6358 18.203 3.08142C17.9679 2.50796 17.6544 2.02152 17.144 1.53689C16.6337 1.05189 16.1233 0.753994 15.5192 0.531478C14.9343 0.315864 14.2671 0.168913 13.2903 0.126408C12.3116 0.0840843 12 0.0737305 9.50736 0.0737305H9.51023Z" fill="white"/>
<path d="M8.68714 1.64476C8.93144 1.64439 9.20403 1.64476 9.51026 1.64476C11.9601 1.64476 12.2505 1.65311 13.2179 1.69489C14.1125 1.73376 14.5981 1.87581 14.9215 1.99515C15.3497 2.15318 15.655 2.34209 15.9759 2.64726C16.2971 2.95242 16.4959 3.24305 16.6625 3.64994C16.7881 3.95692 16.9378 4.41829 16.9785 5.26839C17.0225 6.18752 17.032 6.46362 17.032 8.79049C17.032 11.1174 17.0225 11.3935 16.9785 12.3126C16.9376 13.1627 16.7881 13.6241 16.6625 13.931C16.4962 14.3379 16.2971 14.6276 15.9759 14.9326C15.6548 15.2378 15.3499 15.4267 14.9215 15.5847C14.5984 15.7046 14.1125 15.8463 13.2179 15.8852C12.2507 15.927 11.9601 15.936 9.51026 15.936C7.06022 15.936 6.76985 15.927 5.8026 15.8852C4.90799 15.8459 4.42246 15.7039 4.09883 15.5846C3.67064 15.4265 3.36479 15.2376 3.04365 14.9324C2.72251 14.6273 2.52371 14.3374 2.35702 13.9303C2.23143 13.6233 2.08176 13.162 2.04104 12.3119C1.99707 11.3927 1.98828 11.1166 1.98828 8.78831C1.98828 6.45998 1.99707 6.18534 2.04104 5.26621C2.08195 4.41611 2.23143 3.95474 2.35702 3.64739C2.52333 3.24051 2.72251 2.94988 3.04365 2.64471C3.36479 2.33955 3.67064 2.15064 4.09883 1.99224C4.42227 1.87236 4.90799 1.73068 5.8026 1.69162C6.64904 1.65529 6.97706 1.64439 8.68714 1.64258V1.64476Z" fill="#212121"/>
<path d="M14.4077 3.09265C13.7998 3.09265 13.3066 3.56069 13.3066 4.13843C13.3066 4.71599 13.7998 5.18457 14.4077 5.18457C15.0156 5.18457 15.5087 4.71599 15.5087 4.13843C15.5087 3.56087 15.0156 3.09229 14.4077 3.09229V3.09265Z" fill="white"/>
<path d="M9.5089 4.31494C6.90668 4.31494 4.79688 6.31963 4.79688 8.7922C4.79688 11.2648 6.90668 13.2686 9.5089 13.2686C12.1111 13.2686 14.2202 11.2648 14.2202 8.7922C14.2202 6.31963 12.1109 4.31494 9.50871 4.31494H9.5089Z" fill="white"/>
<path d="M9.50967 5.88574C11.1987 5.88574 12.5682 7.18694 12.5682 8.79224C12.5682 10.3973 11.1987 11.6987 9.50967 11.6987C7.82043 11.6987 6.45117 10.3973 6.45117 8.79224C6.45117 7.18694 7.82043 5.88574 9.50967 5.88574Z" fill="#212121"/>
</svg>
