<svg width="19" height="18" viewBox="0 0 19 18" fill="none" xmlns="http://www.w3.org/2000/svg">
<path d="M4.73792 6.27832V17.335H0.865234V6.27832H4.73792Z" fill="white"/>
<path d="M4.99347 2.85847C4.99347 3.92007 4.15248 4.76953 2.80214 4.76953H2.77739C1.47724 4.76953 0.636719 3.92007 0.636719 2.85847C0.636719 1.77441 1.50284 0.94873 2.82766 0.94873C4.15248 0.94873 4.96833 1.77441 4.99347 2.85847Z" fill="white"/>
<path d="M18.7057 10.9959L18.7056 17.3361H14.833V11.4201C14.833 9.93417 14.2726 8.92019 12.8707 8.92019C11.8007 8.92019 11.1634 9.60376 10.8835 10.264C10.7812 10.5006 10.756 10.8303 10.756 11.1608V17.3364H6.88281C6.88281 17.3364 6.93386 7.31613 6.88281 6.27851H10.756V7.84477C11.27 7.09184 12.1906 6.01855 14.2468 6.01855C16.7952 6.01855 18.7057 7.59935 18.7057 10.9959Z" fill="white"/>
</svg>
