<svg width="87" height="32" viewBox="0 0 87 32" fill="none" xmlns="http://www.w3.org/2000/svg">
<path d="M86.9456 12.8618C75.2958 4.84775 60.0988 3.05176e-05 43.4742 3.05176e-05C26.8495 3.05176e-05 11.6498 4.84775 0 12.8618C11.5871 8.89266 25.1331 6.43091 43.4742 6.43091C61.8152 6.43091 75.3612 8.89266 86.9456 12.8618Z" fill="#00AAFF"/>
<path d="M36.8067 17.0274C35.9512 17.0274 35.5126 17.7404 35.4009 18.6134C35.2755 19.579 34.7824 22.9221 34.6734 23.7699C34.608 24.2807 34.5726 24.8113 34.0931 25.0302C33.6136 25.2492 33.0306 24.9123 32.5347 24.4688L24.6774 17.586C24.2728 17.2228 23.7538 17.0232 23.2171 17.0246C22.1055 17.0246 21.0375 17.7348 21.0375 19.4723V30.2372C20.9953 30.9522 21.5238 31.5669 22.2175 31.6104C22.2447 31.6121 22.2717 31.6127 22.2989 31.6127C23.0119 31.6323 23.6132 31.0687 23.6612 30.3355C23.6612 30.3355 24.4785 25.2071 24.5684 24.6344C24.6828 23.9692 24.7837 23.4471 25.4076 23.2478C25.9715 23.0681 26.4973 23.405 27.2983 24.1207C28.0993 24.8365 34.7089 30.9923 34.7089 30.9923C35.1341 31.419 35.7125 31.6438 36.3054 31.6127C36.9565 31.6127 38.1389 31.332 38.1389 29.2885V18.5657C38.1417 17.572 37.5341 17.0274 36.8067 17.0274Z" fill="#00AAFF"/>
<path d="M84.2156 28.4997C78.4425 29.7797 71.833 28.4127 71.833 24.2021C71.833 21.0218 74.6964 19.7277 76.9522 19.5397C79.3198 19.346 81.1697 19.8569 82.1287 20.8758C82.7226 21.513 82.5564 22.3804 81.3876 22.4506C80.3142 22.5179 78.2954 22.5825 76.6171 22.647C75.6636 22.6835 75.1541 23.2084 75.1541 23.9186C75.1541 24.48 75.5628 25.12 76.6607 25.1256C78.2327 25.1256 82.2241 25.1593 84.2047 25.1649C85.5152 25.1649 86.1582 24.4127 86.1582 22.8604C86.1582 20.4042 83.9977 16.6849 77.6742 16.6849C71.9529 16.6849 67.8008 19.6267 67.8008 24.4323C67.8008 31.2477 77.5353 33.3277 84.6679 30.7958C85.3436 30.5572 85.9566 30.0548 85.7577 29.2772C85.5833 28.5783 85.0357 28.3172 84.2156 28.4997Z" fill="#00AAFF"/>
<path d="M17.2195 28.4997C11.4437 29.7797 4.83689 28.4127 4.83689 24.2021C4.83689 21.0218 7.69757 19.7277 9.95614 19.5397C12.321 19.346 14.1709 19.8569 15.1326 20.8758C15.7265 21.513 15.5604 22.3804 14.3943 22.4506C13.3181 22.5179 11.2993 22.5825 9.62103 22.647C8.66747 22.6835 8.158 23.2084 8.158 23.9186C8.158 24.48 8.56667 25.12 9.66463 25.1256C11.2366 25.1256 15.2307 25.1593 17.2114 25.1649C18.5191 25.1649 19.1648 24.4127 19.1648 22.8604C19.1648 20.4042 17.0016 16.6849 10.6781 16.6849C4.95676 16.6849 0.804688 19.6267 0.804688 24.4323C0.804688 31.2477 10.5392 33.3277 17.6745 30.7958C18.3502 30.5572 18.9632 30.0548 18.7643 29.2772C18.5872 28.5783 18.0396 28.3172 17.2195 28.4997Z" fill="#00AAFF"/>
<path d="M61.9453 21.9453C62.0734 25.6618 62.4139 28.7439 62.5093 29.8246C62.6319 31.2281 63.3266 31.6155 64.0323 31.6155C64.7379 31.6155 65.4217 31.2534 65.5443 29.8358C65.6588 28.6456 65.9911 24.9825 66.1573 21.3334C66.1783 21.216 66.1028 21.1032 65.989 21.0816C65.9541 21.0751 65.9184 21.0776 65.8849 21.0892L62.1251 21.7151C62.0197 21.7379 61.9442 21.8341 61.9453 21.9453Z" fill="#00AAFF"/>
<path d="M64.0435 16.6765C62.8976 16.6021 61.9103 17.499 61.8381 18.6793C61.8332 18.7602 61.8326 18.8413 61.8367 18.9221C61.8367 19.0821 61.8558 19.52 61.8803 20.0674C61.8874 20.1991 61.9964 20.2998 62.1241 20.2925C62.1337 20.292 62.1432 20.2908 62.1528 20.2892L66.076 19.6323C66.1828 19.6149 66.2629 19.522 66.2667 19.4106C66.2667 19.2197 66.2667 19.026 66.283 18.9334C66.3304 17.7345 65.4256 16.7228 64.262 16.674C64.1893 16.6709 64.1163 16.6718 64.0435 16.6765Z" fill="#00AAFF"/>
<path d="M58.2791 22.6021C56.9713 22.6021 52.9337 22.6358 50.3509 22.6414C49.0976 22.6414 48.7843 23.3376 48.7843 23.913C48.7843 24.4127 49.1222 25.0583 50.291 25.12C52.07 25.2155 54.3368 25.325 55.383 25.3811C56.7915 25.4541 56.8106 26.2007 56.3338 26.8407C55.3775 28.1207 53.0508 28.96 50.6397 28.96C47.4848 28.96 44.0138 27.113 44.0138 24.1881C44.0138 21.4372 46.9862 18.4085 55.8107 19.6969C56.5872 19.8092 57.35 19.666 57.5407 18.925C57.7451 18.139 57.2465 17.6337 56.2439 17.3614C54.425 16.8812 52.5525 16.651 50.6751 16.6765C44.7331 16.6765 39.9707 19.5986 39.9707 24.32C39.9707 29.3727 44.7167 31.826 50.6342 31.826C57.241 31.826 60.4586 28.1207 60.4586 24.8814C60.4641 23.2337 59.6495 22.6021 58.2791 22.6021Z" fill="#00AAFF"/>
</svg>
