<svg xmlns="http://www.w3.org/2000/svg" xmlns:xlink="http://www.w3.org/1999/xlink" version="1.1" id="Calque_1" x="0px" y="0px" viewBox="0 0 911.1 343.2" style="enable-background:new 0 0 911.1 343.2;" xml:space="preserve">
<style type="text/css">
	.st0{fill-rule:evenodd;clip-rule:evenodd;fill:#FFFFFF;}
	.st1{fill:#FFFFFF;}
	.st2{fill-rule:evenodd;clip-rule:evenodd;fill:url(#SVGID_1_);}
	.st3{fill-rule:evenodd;clip-rule:evenodd;fill:#96CCD4;}
	.st4{fill-rule:evenodd;clip-rule:evenodd;fill:#009DB9;}
	.st5{fill:#474441;}
</style>
<linearGradient id="SVGID_1_" gradientUnits="userSpaceOnUse" x1="-1.498413e-02" y1="171.595" x2="343.175" y2="171.595">
	<stop offset="0" style="stop-color:#96CCD4"/>
	<stop offset="1" style="stop-color:#009DB9"/>
</linearGradient>
<path class="st2" d="M171.6,0C77,0,0,77,0,171.6s77,171.6,171.6,171.6s171.6-77,171.6-171.6S266.2,0,171.6,0z M18,171.6  C18,86.9,86.9,18,171.6,18s153.6,68.9,153.6,153.6s-68.9,153.6-153.6,153.6S18,256.3,18,171.6z"/>
<path class="st3" d="M237.4,188.2c-1.3,8.2-9,13.8-17.2,12.6s-13.8-9-12.6-17.2c1.3-8.2,9-13.8,17.2-12.6c0,0,0,0,0.1,0  C233.1,172.3,238.7,180.1,237.4,188.2 M235.4,155.6c-1.2,7.6-8.4,12.8-16.1,11.6c-7.6-1.2-12.8-8.4-11.6-16.1  c1.2-7.6,8.4-12.8,16-11.6C231.4,140.8,236.6,147.9,235.4,155.6C235.4,155.6,235.4,155.6,235.4,155.6 M229.7,222.6  c-1.2,7.6-8.4,12.8-16.1,11.6c-7.6-1.2-12.8-8.4-11.6-16.1c1.2-7.6,8.4-12.8,16-11.6C225.7,207.8,230.9,215,229.7,222.6  C229.7,222.6,229.7,222.6,229.7,222.6 M213.9,249.8c-1,6.4-7,10.7-13.4,9.7c-6.4-1-10.7-7-9.7-13.4c1-6.4,7-10.7,13.4-9.7  C210.6,237.4,214.9,243.4,213.9,249.8C213.9,249.7,213.9,249.7,213.9,249.8 M194.9,270.2c-0.9,5.3-5.9,9-11.2,8.1s-9-5.9-8.1-11.2  c0.9-5.3,5.9-9,11.2-8.1C192.1,259.8,195.7,264.9,194.9,270.2C194.9,270.2,194.9,270.2,194.9,270.2 M225.3,124.7  c-1,6.4-7,10.7-13.4,9.7c-6.4-1-10.7-7-9.7-13.4c1-6.4,7-10.7,13.4-9.7C221.9,112.3,226.3,118.3,225.3,124.7 M211.3,100.9  c-0.9,5.3-5.9,9-11.2,8.1c-5.3-0.9-9-5.9-8.1-11.2c0.9-5.3,5.9-9,11.2-8.1C208.5,90.5,212.1,95.5,211.3,100.9 M193.8,82.7  c-0.6,4.1-4.5,6.9-8.6,6.3c0,0,0,0,0,0l0,0c-4.1-0.7-6.9-4.5-6.3-8.6s4.5-6.9,8.6-6.3S194.4,78.6,193.8,82.7  C193.8,82.7,193.8,82.8,193.8,82.7 M177.7,69.6c-0.6,3.4-3.7,5.7-7.1,5.1s-5.7-3.7-5.1-7.1l0,0l0,0c0.6-3.4,3.7-5.7,7.1-5.1  S178.3,66.2,177.7,69.6 M162.9,58.8c-0.4,2.7-3,4.5-5.6,4.1c0,0,0,0,0,0l0,0c-2.7-0.3-4.7-2.7-4.4-5.4c0.3-2.7,2.7-4.7,5.4-4.4  c0.1,0,0.2,0,0.4,0.1h0.2C161.5,53.6,163.3,56.1,162.9,58.8L162.9,58.8 M174.4,284.4c-0.6,4.1-4.5,7-8.6,6.3c-4.1-0.6-7-4.5-6.3-8.6  c0.6-4.1,4.5-6.9,8.6-6.3h0.1C172.2,276.4,175,280.3,174.4,284.4 M154.7,290.8c-0.4,3.4-3.5,5.8-6.9,5.4c-3.4-0.4-5.8-3.5-5.4-6.9  c0-0.1,0-0.2,0-0.3c0,0,0-0.1,0-0.1c0.6-3.4,3.7-5.7,7.1-5.1C152.9,284.2,155.2,287.4,154.7,290.8 M137.9,289  c-0.5,2.9-3.2,4.9-6.1,4.4c-2.9-0.5-4.9-3.2-4.4-6.1c0.5-2.9,3.2-4.9,6.1-4.4l0,0C136.4,283.3,138.4,286.1,137.9,289  C137.9,289,137.9,289,137.9,289 M124.7,281.1c-0.3,2.1-2.3,3.5-4.4,3.2s-3.5-2.3-3.2-4.4s2.3-3.5,4.4-3.2c0,0,0,0,0,0  C123.6,277,125,279,124.7,281.1 M118.8,269.3c-0.5,2.9-3.2,4.9-6.1,4.4l0,0c-2.9-0.5-4.9-3.2-4.4-6.1c0.5-2.9,3.2-4.9,6.1-4.4  C117.3,263.6,119.3,266.4,118.8,269.3 M118,254.1c-0.5,3.4-3.7,5.7-7.1,5.2l0,0c-3.4-0.5-5.7-3.7-5.2-7.1c0.5-3.4,3.7-5.7,7.1-5.2  C116.2,247.5,118.5,250.7,118,254.1C118,254.1,118,254.1,118,254.1 M122.2,236.5c-0.7,4.1-4.5,6.9-8.6,6.2c0,0,0,0,0,0l0,0  c-4.1-0.7-6.9-4.5-6.2-8.6c0.7-4.1,4.5-6.9,8.6-6.2l0,0l0,0C120,228.5,122.8,232.4,122.2,236.5C122.2,236.5,122.2,236.5,122.2,236.5   M128.8,216.3c-0.9,5.3-5.9,9-11.2,8.1c-5.3-0.9-9-5.9-8.1-11.2c0.9-5.3,5.9-8.9,11.2-8.1C126,205.9,129.6,210.9,128.8,216.3  C128.8,216.2,128.8,216.2,128.8,216.3 M137.6,192.1c-1,6.4-7,10.7-13.4,9.7c-6.4-1-10.7-7-9.7-13.4c1-6.4,7-10.7,13.4-9.7  c0,0,0,0,0,0C134.4,179.7,138.7,185.7,137.6,192.1 M147.9,164.8c-1.2,7.6-8.4,12.8-16.1,11.6s-12.8-8.4-11.6-16.1  c1.2-7.6,8.4-12.8,16-11.6C143.9,150,149.1,157.1,147.9,164.8C147.9,164.8,147.9,164.8,147.9,164.8 M159.6,135  c-1.3,8.2-9.1,13.8-17.3,12.5c-8.2-1.3-13.8-9.1-12.5-17.3c1.3-8.2,9.1-13.8,17.3-12.5c0,0,0,0,0,0C155.3,119,160.9,126.8,159.6,135   M149.6,51.1c-0.3,2.1-2.3,3.5-4.4,3.2c0,0,0,0,0,0l0,0c-2.1-0.3-3.5-2.3-3.2-4.4c0.3-2.1,2.3-3.5,4.4-3.2  C148.5,47,149.9,49,149.6,51.1C149.6,51.1,149.6,51.1,149.6,51.1L149.6,51.1"/>
<circle class="st4" cx="222.5" cy="185.9" r="15.1"/>
<g>
	<path class="st5" d="M875.6,193.4c0.2,4.3-2.4,7.6-7.8,14.3c-5.7,6.6-14.2,9.1-20.8,9.1c-17.3,0-28.6-11.6-28.6-27.5   c0-15,12.2-27.5,28.6-27.5C863.4,161.8,875.6,172.1,875.6,193.4 M847,207.8c10.3,0,17.8-8,17.8-18.5c0-10.6-7.5-18.7-17.8-18.7   c-10.3,0-17.8,8.1-17.8,18.7C829.2,199.8,836.7,207.8,847,207.8z"/>
	<path class="st5" d="M446.8,166.5h-30.5v48.1h-10.8v-80.1h10.8v22.3h30.5v-22.3h10.8v80.1h-10.8V166.5z"/>
	<path class="st5" d="M512.4,184.5c0-9.6-6.9-14.1-13.2-14.1c-6.3,0-13.2,4.5-13.2,14.1v30.1h-10.8v-30.1c0-11.8,9.6-22.7,24-22.7   c14.4,0,23.7,10.9,23.7,22.7H512.4z"/>
	<path class="st5" d="M538.2,134.5h46.5v9.7H549v12.6h35.8v9.7H549v48.1h-10.8V134.5z"/>
	<path class="st5" d="M601.3,126.8H612v87.8h-10.8V126.8z"/>
	<path class="st5" d="M683,189.3c0,15-12.2,27.5-28.6,27.5c-16.4,0-28.6-12.5-28.6-27.5c0-15,12.2-27.5,28.6-27.5   C670.8,161.8,683,174.3,683,189.3z M672.2,189.3c0-10.6-7.5-18.5-17.8-18.5c-10.3,0-17.8,8-17.8,18.5c0,10.6,7.5,18.5,17.8,18.5   C664.7,207.8,672.2,199.9,672.2,189.3z"/>
	<path class="st5" d="M766.3,187.2V164H777v23.2c0,19.2-7.9,29.6-23.3,29.6c-8,0-14-3.3-17.9-8.9c-3.8,5.6-9.9,8.9-17.9,8.9   c-15.4,0-23.3-10.3-23.3-29.6V164h10.8v23.2c0,12.7,3.2,20,12.5,20c9.3,0,12.5-7.4,12.5-20V164h10.8v23.2c0,12.7,3.2,20,12.5,20   C763.1,207.2,766.3,199.9,766.3,187.2z"/>
	<path class="st5" d="M798.8,204.1c3.4,0,6.4,3,6.4,6.4c0,3.5-3,6.4-6.4,6.4c-3.5,0-6.4-2.9-6.4-6.4   C792.4,207,795.3,204.1,798.8,204.1z"/>
	<path class="st5" d="M904.9,147.5c3.2,0,5.8,2.6,5.8,5.8s-2.6,5.8-5.8,5.8s-5.8-2.6-5.8-5.8S901.7,147.5,904.9,147.5z M899.5,164   h10.8v50.6h-10.8V164z"/>
	<path class="st5" d="M888.1,214.6c-15.4,0-23.3-10.3-23.3-29.6v1.8h10.4l0,0c0,11.3,3.6,18.2,13,18.2"/>
</g>
</svg>