<svg xmlns="http://www.w3.org/2000/svg" width="78" height="78" viewBox="0 0 78 78" fill="none">
<path fill-rule="evenodd" clip-rule="evenodd" d="M39 77.5C17.737 77.5 0.5 60.263 0.5 39C0.5 17.737 17.737 0.5 39 0.5C60.263 0.5 77.5 17.737 77.5 39C77.5 60.263 60.263 77.5 39 77.5ZM39 70.5C56.397 70.5 70.5 56.3969 70.5 39C70.5 21.603 56.397 7.49997 39 7.49997C21.603 7.49997 7.49999 21.603 7.49999 39C7.49999 56.3969 21.603 70.5 39 70.5ZM56.5 35.5H42.5V18H35.5V42.5H56.5V35.5Z" fill="white" fill-opacity="0.4"/>
</svg>