<svg width="21" height="17" viewBox="0 0 21 17" fill="none" xmlns="http://www.w3.org/2000/svg">
<path d="M10.6221 4.87196L10.6657 5.54352L9.93917 5.46128C7.29456 5.14606 4.98417 4.07705 3.02251 2.28166L2.06348 1.39081L1.81645 2.04867C1.29335 3.51513 1.62755 5.06383 2.71736 6.10543C3.2986 6.68105 3.16782 6.76329 2.16519 6.42065C1.81645 6.31101 1.51131 6.22878 1.48225 6.2699C1.38053 6.36583 1.72927 7.61301 2.00535 8.1064C2.38316 8.79167 3.15329 9.46323 3.99607 9.86068L4.70808 10.1759L3.8653 10.1896C3.05157 10.1896 3.02251 10.2033 3.10969 10.4911C3.40031 11.382 4.54824 12.3276 5.82695 12.7388L6.72786 13.0266L5.9432 13.4652C4.78074 14.0956 3.41484 14.452 2.04895 14.4794C1.39506 14.4931 0.857422 14.5479 0.857422 14.589C0.857422 14.7261 2.63018 15.4936 3.66187 15.7951C6.75692 16.6859 10.4332 16.3022 13.1941 14.7809C15.1557 13.6982 17.1174 11.5464 18.0328 9.46323C18.5269 8.3531 19.0209 6.32472 19.0209 5.35164C19.0209 4.7212 19.0645 4.63897 19.8782 3.88517C20.3577 3.44661 20.8082 2.96692 20.8954 2.82987C21.0407 2.56947 21.0262 2.56947 20.2851 2.80246C19.05 3.21362 18.8756 3.15879 19.4859 2.54206C19.9364 2.10349 20.474 1.30858 20.474 1.07559C20.474 1.03448 20.256 1.103 20.009 1.22635C19.7475 1.3634 19.1662 1.56898 18.7303 1.69233L17.9456 1.92532L17.2336 1.47304C16.8413 1.22635 16.2891 0.952243 15.9985 0.870012C15.2574 0.678138 14.124 0.705548 13.4556 0.924833C11.6393 1.54157 10.4913 3.13138 10.6221 4.87196Z" fill="white"/>
</svg>
