<svg width="21" height="14" viewBox="0 0 21 14" fill="none" xmlns="http://www.w3.org/2000/svg">
<path d="M20.5162 2.51382C20.2849 1.70631 19.6035 1.07042 18.7382 0.854612C17.17 0.462402 10.8813 0.462402 10.8813 0.462402C10.8813 0.462402 4.59262 0.462402 3.02436 0.854612C2.15905 1.07042 1.47759 1.70631 1.24632 2.51382C0.826172 3.97735 0.826172 7.03101 0.826172 7.03101C0.826172 7.03101 0.826172 10.0846 1.24632 11.5482C1.47759 12.3557 2.15905 12.9916 3.02436 13.2075C4.59262 13.5996 10.8813 13.5996 10.8813 13.5996C10.8813 13.5996 17.17 13.5996 18.7382 13.2075C19.6035 12.9916 20.2849 12.3557 20.5162 11.5482C20.9365 10.0846 20.9365 7.03101 20.9365 7.03101C20.9365 7.03101 20.9365 3.97735 20.5162 2.51382Z" fill="white"/>
<path d="M8.36719 10.0176V4.0459L13.3947 7.03185L8.36719 10.0176Z" fill="#212121"/>
</svg>
